<svg width="130" height="130" viewBox="0 0 130 130" fill="none" xmlns="http://www.w3.org/2000/svg">
<g clip-path="url(#clip0)">
<path d="M122.822 71.6122C127.523 64.1626 130 55.5867 130 46.7185C130 20.9579 109.042 0 83.2817 0C74.653 0 66.2223 2.37174 58.9016 6.85877C57.706 7.59154 57.3307 9.15459 58.0637 10.3502C58.7963 11.5456 60.3593 11.9212 61.5552 11.1881C68.077 7.19088 75.5901 5.07812 83.282 5.07812C106.242 5.07812 124.922 23.7578 124.922 46.7185C124.922 55.0459 122.473 63.0822 117.838 69.9588C117.224 70.8708 117.276 72.05 117.909 72.8967L120.691 83.2805L109.523 80.2879C108.792 80.0919 108.011 80.2323 107.394 80.6716C100.326 85.701 91.9879 88.3591 83.282 88.3591C78.3224 88.3591 73.4715 87.4928 68.8581 85.7883C65.6103 73.8281 56.1734 64.3909 44.2132 61.1434C42.5084 56.5299 41.6416 51.6798 41.6416 46.7188C41.6416 38.9416 43.7985 31.3572 47.8793 24.7853C48.6189 23.594 48.2528 22.0287 47.0615 21.2888C45.8707 20.5491 44.3048 20.915 43.5649 22.1066C38.9842 29.4836 36.5632 37.9943 36.5632 46.7188C36.5632 51.2858 37.2188 55.7703 38.5112 60.0945C37.3689 59.9818 36.2111 59.9226 35.0398 59.9226C15.7193 59.9226 0.000976562 75.6412 0.000976562 94.9614C0.000976562 101.895 2.00582 108.552 5.80984 114.289L3.09254 124.432C2.85768 125.308 3.10828 126.243 3.74965 126.884C4.39102 127.526 5.32564 127.776 6.20213 127.541L16.5958 124.756C22.1309 128.19 28.4827 130 35.0398 130C41.7137 130 48.2053 128.116 53.8128 124.552C54.9963 123.799 55.3457 122.23 54.5936 121.047C53.8413 119.863 52.2716 119.514 51.0887 120.266C46.2965 123.312 40.7473 124.922 35.0398 124.922C29.0984 124.922 23.3558 123.186 18.4333 119.901C17.8257 119.495 17.0729 119.371 16.3668 119.56L9.13551 121.498L11.018 114.472C11.2142 113.74 11.0728 112.958 10.6323 112.341C6.99914 107.248 5.07885 101.239 5.07885 94.9609C5.07885 78.4405 18.5194 65.0003 35.0395 65.0003C51.5597 65.0003 65.0005 78.4408 65.0005 94.9612C65.0005 98.4892 64.3939 101.942 63.1975 105.224C62.7171 106.541 63.3958 107.999 64.7133 108.479C66.0306 108.959 67.4882 108.281 67.9684 106.963C69.3687 103.122 70.0786 99.0844 70.0786 94.9612C70.0786 93.7899 70.0197 92.6324 69.9069 91.4903C74.2315 92.7824 78.7165 93.437 83.282 93.437C92.6448 93.437 101.629 90.6958 109.344 85.4971L123.625 89.3235C124.501 89.5583 125.436 89.3077 126.077 88.6664C126.719 88.025 126.969 87.0901 126.734 86.2136L122.822 71.6122Z" fill="white"/>
<path d="M96.3701 52.1257H70.509C69.1067 52.1257 67.97 53.2624 67.97 54.6647C67.97 63.1947 74.9097 70.1345 83.4397 70.1345C91.9697 70.1345 98.9095 63.1947 98.9095 54.6647C98.9092 53.2624 97.7722 52.1257 96.3701 52.1257ZM83.4397 65.0561C78.5855 65.0561 74.4979 61.7101 73.3619 57.2036H93.5178C92.3813 61.7101 88.2936 65.0561 83.4397 65.0561Z" fill="white"/>
<path d="M103.21 38.04C102.474 36.8459 100.909 36.4746 99.716 37.21L99.3849 37.4144C98.1921 38.1514 97.8224 39.716 98.5597 40.9089C99.0399 41.6863 99.8712 42.1139 100.722 42.1139C101.177 42.1139 101.638 41.9915 102.054 41.7343L102.379 41.5335C103.573 40.7979 103.945 39.2338 103.21 38.04Z" fill="white"/>
<path d="M68.3212 38.0397C67.5853 36.8458 66.0208 36.4746 64.8277 37.21L64.4966 37.4143C63.3035 38.1514 62.934 39.716 63.6714 40.9089C64.1515 41.6861 64.9828 42.1137 65.8336 42.1137C66.2889 42.1137 66.75 41.9913 67.1659 41.7341L67.4911 41.5332C68.685 40.7977 69.0567 39.2336 68.3212 38.0397Z" fill="white"/>
<path d="M22.8696 93.1656C22.3973 92.6933 21.7422 92.4216 21.0745 92.4216C20.4067 92.4216 19.7519 92.6933 19.2793 93.1656C18.8071 93.6378 18.5354 94.2929 18.5354 94.9607C18.5354 95.6285 18.8071 96.2835 19.2793 96.7558C19.7516 97.2281 20.4067 97.4997 21.0745 97.4997C21.7422 97.4997 22.3973 97.2281 22.8696 96.7558C23.3418 96.2835 23.6135 95.6285 23.6135 94.9607C23.6135 94.2929 23.3418 93.6378 22.8696 93.1656Z" fill="white"/>
<path d="M36.8344 93.1656C36.3622 92.6933 35.7071 92.4216 35.0393 92.4216C34.3715 92.4216 33.7167 92.6933 33.2442 93.1656C32.7719 93.6378 32.5002 94.2929 32.5002 94.9607C32.5002 95.6285 32.7719 96.2835 33.2442 96.7558C33.7165 97.2281 34.3715 97.4997 35.0393 97.4997C35.7071 97.4997 36.3622 97.2281 36.8344 96.7558C37.3067 96.2835 37.5784 95.6285 37.5784 94.9607C37.5784 94.2929 37.3067 93.6378 36.8344 93.1656Z" fill="white"/>
<path d="M50.799 93.1656C50.3268 92.6933 49.6717 92.4216 49.0039 92.4216C48.3361 92.4216 47.6813 92.6933 47.2088 93.1656C46.7365 93.6378 46.4648 94.2929 46.4648 94.9607C46.4648 95.6285 46.7365 96.2835 47.2088 96.7558C47.6811 97.2281 48.3361 97.4997 49.0039 97.4997C49.6717 97.4997 50.3268 97.2281 50.799 96.7558C51.2713 96.2835 51.543 95.6285 51.543 94.9607C51.543 94.2929 51.2713 93.6378 50.799 93.1656Z" fill="white"/>
<path d="M62.1639 113.529C61.6916 113.056 61.0365 112.785 60.3688 112.785C59.6985 112.785 59.0459 113.056 58.5737 113.529C58.1014 114.001 57.8297 114.656 57.8297 115.324C57.8297 115.991 58.1014 116.647 58.5737 117.119C59.0459 117.591 59.6985 117.863 60.3688 117.863C61.0365 117.863 61.6916 117.591 62.1639 117.119C62.6362 116.647 62.9078 115.991 62.9078 115.324C62.9078 114.656 62.6362 114.001 62.1639 113.529Z" fill="white"/>
<path d="M53.9223 13.5995C53.4501 13.1272 52.795 12.8581 52.1272 12.8581C51.4569 12.8581 50.8043 13.1272 50.3321 13.5995C49.8573 14.0743 49.5881 14.7268 49.5881 15.3971C49.5881 16.0649 49.8573 16.72 50.3321 17.1922C50.8043 17.6645 51.4566 17.9336 52.1272 17.9336C52.795 17.9336 53.4501 17.6645 53.9223 17.1922C54.3946 16.72 54.6663 16.0649 54.6663 15.3971C54.6663 14.7268 54.3946 14.0743 53.9223 13.5995Z" fill="white"/>
</g>
<defs>
<clipPath id="clip0">
<rect width="130" height="130" fill="white"/>
</clipPath>
</defs>
</svg>
