<svg width="130" height="130" viewBox="0 0 130 130" fill="none" xmlns="http://www.w3.org/2000/svg">
<g clip-path="url(#clip0)">
<path d="M129.948 104.58V93.1408H117.747V85.5148H113.68V79.1598H117.747V67.7207H87.3334V71.5337H113.934V75.3467H35.0404V79.1598H109.866V85.5148H26.8696C25.1174 85.5148 23.6921 84.0895 23.6921 82.3373C23.6921 80.5851 25.1174 79.1598 26.8696 79.1598H31.2274V75.3467H26.8696C23.0152 75.3467 19.8791 78.4826 19.8791 82.3373C19.8791 86.192 23.0152 89.3278 26.8696 89.3278H113.933V93.1408H48.2225V96.9538H126.135V100.767H18.481C12.5238 100.767 7.67742 105.613 7.67742 111.57C7.67742 117.528 12.5238 122.374 18.481 122.374H108.286V118.561H18.4812C14.6265 118.561 11.4907 115.425 11.4907 111.57C11.4907 107.716 14.6265 104.58 18.4812 104.58H122.068V110.935H37.5463V114.748H122.068V118.561H112.1V122.374H126.135V126.187H18.4812C10.4215 126.187 3.86465 119.63 3.86465 111.57C3.86465 103.511 10.4215 96.9538 18.4812 96.9538H44.4097V93.1408H26.8699C20.9127 93.1408 16.0663 88.2945 16.0663 82.3373C16.0663 76.3801 20.9127 71.5337 26.8699 71.5337H83.5204V67.7207H26.8699C18.8102 67.7207 12.2533 74.2776 12.2533 82.3373C12.2533 86.6439 14.1265 90.5205 17.0999 93.198C7.58107 93.9075 0.0516357 101.873 0.0516357 111.57C0.0516357 121.733 8.31902 130 18.4812 130H129.948V118.561H125.881V104.58H129.948Z" fill="white"/>
<path d="M29.9203 110.935H33.7333V114.748H29.9203V110.935Z" fill="white"/>
<path d="M35.1314 56.6663L35.9804 57.2324C36.3114 57.453 44.3243 62.6367 65 62.6367C85.6757 62.6367 93.6887 57.453 94.0196 57.2324L94.8687 56.6663V24.5673L106.308 20.7543V38.754C103.377 39.5862 101.224 42.2846 101.224 45.4781V55.0107H115.205V45.4781C115.205 42.2846 113.051 39.5862 110.121 38.754V19.4832L116.785 17.2618L96.7627 10.5875L95.5568 14.2048L104.727 17.2615L65 30.5041L25.2727 17.2618L65 4.01943L91.9395 12.9993L93.1454 9.38206L65 0L13.2149 17.2618L35.1314 24.5673V56.6663ZM111.392 45.4781V51.1976H105.037V45.4781C105.037 43.7259 106.462 42.3006 108.214 42.3006C109.966 42.3006 111.392 43.7259 111.392 45.4781ZM38.9444 25.8383L65 34.5236L91.0556 25.8383V40.7754H86.3529V44.5884H91.0556V48.4014H82.7941V52.2144H91.0556V54.5129C88.5985 55.7094 80.6931 58.8237 65 58.8237C49.295 58.8237 41.3893 55.7046 38.9444 54.5139V25.8383Z" fill="white"/>
<path d="M22.2942 110.935H26.1072V114.748H22.2942V110.935Z" fill="white"/>
<path d="M75.1681 48.4014H78.9811V52.2144H75.1681V48.4014Z" fill="white"/>
</g>
<defs>
<clipPath id="clip0">
<rect width="130" height="130" fill="white"/>
</clipPath>
</defs>
</svg>
