<svg width="130" height="130" viewBox="0 0 130 130" fill="none" xmlns="http://www.w3.org/2000/svg">
<g clip-path="url(#clip0)">
<path d="M73.9006 61.6507C74.284 62.4005 75.0467 62.8337 75.8353 62.8337C76.1646 62.8337 76.5026 62.7578 76.8169 62.5975C76.9446 62.5325 89.6977 56.0542 95.9874 54.0674C97.1272 53.7056 97.7597 52.4879 97.3979 51.3483C97.0381 50.2086 95.8293 49.5738 94.6788 49.9336C88.0532 52.0288 75.3869 58.4637 74.8497 58.7367C73.7835 59.2783 73.359 60.5828 73.9006 61.6507Z" fill="white"/>
<path d="M75.8354 36.8341C76.1647 36.8341 76.5026 36.7582 76.817 36.598C76.9447 36.533 89.6978 30.0546 95.9875 28.0678C97.1273 27.706 97.7598 26.4883 97.398 25.3488C97.0382 24.209 95.8293 23.5742 94.6789 23.934C88.0533 26.0292 75.387 32.4642 74.8497 32.7371C73.7838 33.2787 73.3591 34.583 73.9006 35.6512C74.284 36.4007 75.0468 36.8341 75.8354 36.8341Z" fill="white"/>
<path d="M127.833 32.5007C126.635 32.5007 125.667 33.4714 125.667 34.6673V119.167C125.667 122.75 122.75 125.667 119.167 125.667H67.1673V120.681C70.3264 119.576 78.5551 117 86.6671 117C105.541 117 118.357 121.18 118.484 121.223C119.136 121.439 119.865 121.331 120.434 120.924C121 120.516 121.333 119.862 121.333 119.166V23.8342C121.333 22.8181 120.629 21.9383 119.637 21.7195C119.637 21.7195 117.938 21.3404 115.035 20.8072C113.863 20.5906 112.73 21.3706 112.513 22.5449C112.296 23.7235 113.074 24.8524 114.251 25.069C115.358 25.2726 116.285 25.4524 117 25.5956V116.287C112.09 115 101.188 112.667 86.6669 112.667C77.2267 112.667 67.9536 115.767 65.0848 116.818C62.5345 115.691 54.8258 112.667 45.5004 112.667C30.5764 112.667 18.2828 115.128 13.0006 116.378V25.511C17.3274 24.4472 30.1064 21.6674 45.5004 21.6674C53.4001 21.6674 60.175 24.1265 62.8336 25.2381V110.5C62.8336 111.28 63.2539 112.002 63.932 112.385C64.6102 112.771 65.4466 112.76 66.1161 112.357C66.3307 112.229 87.7978 99.4068 106.851 93.0564C107.737 92.7596 108.333 91.9341 108.333 91.0003V2.16757C108.333 1.45689 107.984 0.791659 107.399 0.386682C106.819 -0.0185493 106.074 -0.111732 105.404 0.137602C88.0687 6.63958 70.5277 17.5552 70.352 17.6636C69.3379 18.2984 69.0281 19.6352 69.6629 20.6493C70.2956 21.6633 71.6324 21.9731 72.6486 21.3384C72.8088 21.2365 88.0687 11.7423 104 5.33553V89.4492C89.2102 94.5885 73.7685 102.98 67.1668 106.737V23.8342C67.1668 23.0131 66.7031 22.2633 65.9686 21.8952C65.5959 21.7111 56.7171 17.3343 45.5004 17.3343C25.9226 17.3343 10.8709 21.5702 10.2381 21.752C9.3086 22.0163 8.66724 22.8679 8.66724 23.8342V119.167C8.66724 119.845 8.98792 120.486 9.52746 120.896C9.90883 121.184 10.3681 121.334 10.8341 121.334C11.0334 121.334 11.2327 121.306 11.4277 121.249C11.5772 121.208 26.5596 117 45.5004 117C53.4217 117 60.1902 119.466 62.8336 120.573V125.667H10.8341C7.25045 125.667 4.33411 122.75 4.33411 119.167V34.6676C4.33411 33.4717 3.36343 32.501 2.16754 32.501C0.971652 32.501 0.000976562 33.4717 0.000976562 34.6676V119.167C0.000976562 125.14 4.8607 130 10.8343 130H119.167C125.14 130 130 125.14 130 119.167V34.6676C130 33.4714 129.032 32.5007 127.833 32.5007Z" fill="white"/>
<path d="M73.9006 48.6508C74.284 49.4006 75.0467 49.8338 75.8353 49.8338C76.1646 49.8338 76.5026 49.7579 76.8169 49.5977C76.9446 49.5327 89.6977 43.0543 95.9874 41.0675C97.1272 40.7057 97.7597 39.4879 97.3979 38.3484C97.0381 37.2087 95.8293 36.5739 94.6788 36.9337C88.0532 39.0289 75.3869 45.4638 74.8497 45.7368C73.7835 46.2784 73.359 47.5829 73.9006 48.6508Z" fill="white"/>
<path d="M73.9006 74.6506C74.284 75.4004 75.0467 75.8336 75.8353 75.8336C76.1646 75.8336 76.5026 75.7577 76.8169 75.5975C76.9446 75.5325 89.6977 69.0541 95.9874 67.0673C97.1272 66.7055 97.7597 65.4877 97.3979 64.3482C97.0381 63.2084 95.8293 62.5737 94.6788 62.9335C88.0532 65.0287 75.3869 71.4636 74.8497 71.7366C73.7835 72.2782 73.359 73.5827 73.9006 74.6506Z" fill="white"/>
<path d="M52.4942 40.2098C39.1152 37.0703 23.9117 41.07 23.2726 41.2412C22.1179 41.5509 21.4311 42.7382 21.7408 43.8952C22.0008 44.8636 22.876 45.5007 23.8317 45.5007C24.0181 45.5007 24.2065 45.4768 24.3951 45.427C24.5404 45.3859 39.1782 41.5357 51.5065 44.4282C52.6656 44.6991 53.8379 43.9775 54.1108 42.8118C54.3835 41.6484 53.6599 40.4827 52.4942 40.2098Z" fill="white"/>
<path d="M52.4942 53.2097C39.1152 50.0724 23.9117 54.0699 23.2726 54.241C22.1179 54.5508 21.4311 55.7383 21.7408 56.8951C22.0008 57.8635 22.876 58.5005 23.8317 58.5005C24.0181 58.5005 24.2065 58.4767 24.3951 58.4269C24.5404 58.3858 39.1782 54.5356 51.5065 57.4281C52.6656 57.699 53.8379 56.9774 54.1108 55.8117C54.3835 54.6483 53.6599 53.4826 52.4942 53.2097Z" fill="white"/>
<path d="M73.9006 87.6506C74.284 88.4003 75.0467 88.8335 75.8353 88.8335C76.1646 88.8335 76.5026 88.7576 76.8169 88.5974C76.9446 88.5324 89.6977 82.054 95.9874 80.0672C97.1272 79.7054 97.7597 78.4877 97.3979 77.3481C97.0381 76.2086 95.8293 75.5736 94.6788 75.9334C88.0532 78.0286 75.3869 84.4636 74.8497 84.7365C73.7835 85.2781 73.359 86.5826 73.9006 87.6506Z" fill="white"/>
<path d="M52.4942 66.2096C39.1152 63.0723 23.9117 67.0675 23.2726 67.2409C22.1179 67.5507 21.4311 68.7382 21.7408 69.895C22.0008 70.8634 22.876 71.5027 23.8317 71.5027C24.0181 71.5027 24.2065 71.4768 24.3951 71.4268C24.5404 71.3857 39.1782 67.5355 51.5065 70.4279C52.6656 70.6989 53.8379 69.9773 54.1108 68.8116C54.3835 67.6482 53.6599 66.4825 52.4942 66.2096Z" fill="white"/>
<path d="M52.4942 92.2094C39.1152 89.0699 23.9117 93.0696 23.2726 93.2408C22.1179 93.5505 21.4311 94.738 21.7408 95.8948C22.0008 96.8632 22.876 97.5025 23.8317 97.5025C24.0181 97.5025 24.2065 97.4766 24.3951 97.4266C24.5404 97.3855 39.1782 93.5353 51.5065 96.4278C52.6656 96.6964 53.8379 95.9771 54.1108 94.8114C54.3835 93.648 53.6599 92.4823 52.4942 92.2094Z" fill="white"/>
<path d="M52.4942 79.2095C39.1152 76.07 23.9117 80.0674 23.2726 80.2409C22.1179 80.5506 21.4311 81.7381 21.7408 82.8949C22.0008 83.8633 22.876 84.5026 23.8317 84.5026C24.0181 84.5026 24.2065 84.4767 24.3951 84.4267C24.5404 84.3856 39.1782 80.5354 51.5065 83.4278C52.6656 83.6988 53.8379 82.9772 54.1108 81.8115C54.3835 80.6481 53.6599 79.4824 52.4942 79.2095Z" fill="white"/>
</g>
<defs>
<clipPath id="clip0">
<rect width="130" height="130" fill="white"/>
</clipPath>
</defs>
</svg>
