<svg width="130" height="130" viewBox="0 0 130 130" fill="none" xmlns="http://www.w3.org/2000/svg">
<g clip-path="url(#clip0)">
<path d="M119.163 82.029V81.8175C119.163 77.1423 115.359 73.3386 110.684 73.3386H86.4891L88.0623 38.1195C88.0976 37.3263 87.6482 36.591 86.9258 36.2611C80.5828 33.3641 76.4842 26.9918 76.4842 20.0272C76.4842 14.0488 79.4856 8.53043 84.3352 5.24795V17.2531C84.3352 20.0216 86.5879 22.274 89.3564 22.274H99.2961C102.065 22.274 104.317 20.0216 104.317 17.2531V5.2482C109.167 8.53068 112.168 14.049 112.168 20.0275C112.168 27.1696 107.926 33.6068 101.36 36.4272C100.612 36.7489 100.142 37.5027 100.184 38.3168L101.554 64.8866C101.609 65.9604 102.523 66.7886 103.599 66.731C104.673 66.6756 105.498 65.7601 105.443 64.686L104.141 39.4245C111.426 35.7389 116.062 28.2682 116.062 20.0272C116.062 11.4557 110.999 3.66079 103.162 0.168581C102.56 -0.0997966 101.863 -0.045207 101.309 0.314068C100.756 0.67309 100.422 1.28779 100.422 1.94718V17.2526C100.422 17.8739 99.9169 18.3791 99.2958 18.3791H89.3562C88.7349 18.3791 88.2296 17.8739 88.2296 17.2526V1.94769C88.2296 1.2883 87.8957 0.673597 87.3427 0.314576C86.7895 -0.0446992 86.092 -0.0992888 85.4897 0.169089C77.6532 3.66104 72.5896 11.4562 72.5896 20.0277C72.5896 28.0679 77.0713 35.4591 84.1146 39.2143L84.0475 43.4055C82.6996 42.3373 80.9992 41.6957 79.1512 41.6914C78.336 41.6757 75.6263 41.8176 73.4935 44.0454C71.6857 45.9339 71.3922 48.1578 71.3782 49.3149C71.3764 49.471 71.3472 49.6353 71.2916 49.8034C69.9777 53.7793 68.2638 57.546 66.1975 60.9986C65.6453 61.9213 65.9457 63.1172 66.8683 63.6694C67.7913 64.2219 68.9869 63.9213 69.5392 62.9986C71.752 59.3007 73.5859 55.2725 74.9892 51.026C75.1703 50.4788 75.2655 49.9194 75.2723 49.3629C75.2795 48.7789 75.4232 47.6615 76.3065 46.7388C77.3371 45.6625 78.6836 45.5853 79.0464 45.5853C79.0829 45.5853 79.1063 45.586 79.1327 45.586C81.3597 45.586 83.1716 47.4007 83.1716 49.6315C83.1716 50.4999 83.1777 51.3032 83.1835 52.0629C83.1929 53.285 83.201 54.3402 83.1825 55.3855C83.1282 58.4781 82.9903 61.2296 82.8572 63.8906C82.6841 67.3487 82.5051 70.9245 82.5051 75.2863C82.5051 76.3618 83.377 77.2335 84.4523 77.2335H110.683C113.211 77.2335 115.268 79.2901 115.268 81.818V82.0295C115.268 84.5574 113.211 86.6143 110.683 86.6143H105.029C103.953 86.6143 103.082 87.4859 103.082 88.5615C103.082 89.637 103.953 90.5087 105.029 90.5087H110.683C113.211 90.5087 115.268 92.5655 115.268 95.0934V95.1378C115.268 97.6657 113.211 99.7224 110.683 99.7224H105.029C103.953 99.7224 103.082 100.594 103.082 101.67C103.082 102.745 103.953 103.617 105.029 103.617H110.683C113.211 103.617 115.268 105.674 115.268 108.201V108.457C115.268 110.985 113.211 113.042 110.683 113.042H105.029C103.953 113.042 103.082 113.914 103.082 114.989C103.082 116.065 103.953 116.937 105.029 116.937H110.683C113.211 116.937 115.268 118.993 115.268 121.521C115.268 124.049 113.211 126.106 110.683 126.106H64.209C59.6288 126.106 55.2903 124.355 51.9928 121.176L50.0385 119.292V82.0039C52.6989 80.5251 55.2255 78.8181 57.5617 76.9176C58.9742 75.7685 60.341 74.5294 61.6242 73.2345C62.3811 72.4705 62.3755 71.2378 61.6118 70.4806C60.848 69.7235 59.6151 69.7293 58.8579 70.4931C57.6722 71.6895 56.4093 72.8346 55.1039 73.8967C53.4518 75.2406 51.6945 76.4776 49.8588 77.5989C49.2265 75.1522 47.0006 73.3394 44.3592 73.3394H12.7844C11.7088 73.3394 10.8372 74.211 10.8372 75.2866V128.053C10.8372 129.128 11.7091 130 12.7844 130H44.3589C47.3774 130 49.8524 127.633 50.0276 124.658C53.9532 128.11 58.9503 130 64.209 130H110.684C115.359 130 119.163 126.196 119.163 121.521C119.163 118.896 117.964 116.546 116.085 114.989C117.964 113.433 119.163 111.082 119.163 108.457V108.201C119.163 105.576 117.964 103.226 116.085 101.669C117.964 100.113 119.163 97.7627 119.163 95.1376V95.0932C119.163 92.468 117.964 90.1179 116.085 88.5612C117.964 87.0045 119.163 84.6541 119.163 82.029ZM46.1441 80.8174C46.1441 80.8202 46.1441 80.8229 46.1441 80.8257V124.32C46.1441 125.304 45.3433 126.105 44.3592 126.105H14.7315V77.2332H44.3589C45.3433 77.2332 46.1439 78.0341 46.1439 79.0182V80.8174H46.1441Z" fill="white"/>
<path d="M34.854 90.0049C36.3603 90.0049 37.5814 88.7838 37.5814 87.2775C37.5814 85.7711 36.3603 84.55 34.854 84.55C33.3476 84.55 32.1265 85.7711 32.1265 87.2775C32.1265 88.7838 33.3476 90.0049 34.854 90.0049Z" fill="white"/>
</g>
<defs>
<clipPath id="clip0">
<rect width="130" height="130" fill="white"/>
</clipPath>
</defs>
</svg>
