<svg width="130" height="130" viewBox="0 0 130 130" fill="none" xmlns="http://www.w3.org/2000/svg">
<path d="M73.9822 29.5571C72.8306 29.5571 71.8838 30.5039 71.8838 31.6555C71.8838 32.8071 72.8306 33.7283 73.9822 33.7283C75.7991 33.7283 77.2834 35.187 77.2834 36.9783C77.2834 38.1299 78.2302 39.0768 79.3818 39.0768C80.5334 39.0768 81.4802 38.1299 81.4802 36.9783C81.4802 32.8839 78.1279 29.5571 73.9822 29.5571Z" fill="white"/>
<path d="M77.5906 45.5512C76.439 45.5512 75.4921 46.498 75.4921 47.6496C75.4921 49.4409 74.0079 50.8996 72.191 50.8996C71.0394 50.8996 70.0925 51.8465 70.0925 52.998C70.0925 54.1496 71.0394 55.0965 72.191 55.0965C76.311 55.0965 79.689 51.7697 79.689 47.6496C79.689 46.498 78.7421 45.5512 77.5906 45.5512Z" fill="white"/>
<path d="M56.0178 29.5315C51.8977 29.5315 48.5198 32.8583 48.5198 36.9527C48.5198 38.1043 49.4666 39.0512 50.6182 39.0512C51.7698 39.0768 52.7166 38.1299 52.7166 36.9783C52.7166 35.187 54.2009 33.7283 56.0178 33.7283C57.1694 33.7283 58.1162 32.7815 58.1162 31.6299C58.1162 30.4783 57.1694 29.5315 56.0178 29.5315Z" fill="white"/>
<path d="M57.8091 50.8996C55.9921 50.8996 54.5079 49.4409 54.5079 47.6496C54.5079 46.498 53.561 45.5512 52.4095 45.5512C51.2579 45.5512 50.311 46.498 50.311 47.6496C50.311 51.7441 53.6634 55.0965 57.8091 55.0965C58.9606 55.0965 59.9075 54.1496 59.9075 52.998C59.9075 51.8465 58.9606 50.8996 57.8091 50.8996Z" fill="white"/>
<path d="M96.7323 58.1161L96.2205 56.6319H89.8229C90.2323 55.4547 90.4626 54.2264 90.4626 52.998C90.4626 51.7185 90.2323 50.4646 89.7717 49.2362C91.3839 47.2913 92.2796 44.8858 92.2796 42.3268C92.2796 39.2303 90.9488 36.2874 88.6457 34.2146C88.6713 33.9587 88.6713 33.6772 88.6713 33.4213C88.6713 27.3563 83.7067 22.4173 77.5906 22.4173H73.1378C71.0394 20.1398 68.1221 18.8602 65.0256 18.8602C61.9036 18.8602 59.0118 20.1398 56.9134 22.4173H52.4607C46.3445 22.4173 41.38 27.3563 41.38 33.4213C41.38 33.6772 41.38 33.9331 41.4055 34.2146C39.1024 36.2874 37.7717 39.2303 37.7717 42.3268C37.7717 44.8858 38.6418 47.2913 40.2796 49.2362C39.8189 50.4646 39.5886 51.7185 39.5886 52.998C39.5886 54.252 39.8189 55.4803 40.2284 56.6319H33.8563L33.3957 58.1161C32.5768 60.8543 32.1162 63.5925 32.0394 66.3051C31.7067 77.0276 36.6713 87.2638 45.3209 93.6614C50.3878 97.4232 52.6654 101.364 52.6654 106.457V106.917V109.016V115.311H48.2894V119.508H52.8189C53.7402 125.445 58.8839 130 65.0768 130C71.2697 130 76.3878 125.445 77.3347 119.508H81.8386V115.311H77.4882V109.016H77.4626V106.457C77.4626 101.339 79.689 97.5 84.9095 93.5846C93.2776 87.315 98.0886 77.7441 98.0886 67.3543C98.0886 64.2835 97.628 61.1614 96.7323 58.1161ZM67.124 23.4409C68.4036 23.8504 69.6063 24.6437 70.4764 25.7953L71.1162 26.6142H77.5906C81.378 26.6142 84.4744 29.6594 84.4744 33.4213C84.4744 33.8307 84.4233 34.2402 84.3465 34.7008L84.0906 36.0315L85.191 36.8248C87.0335 38.1299 88.0827 40.126 88.0827 42.3268C88.0827 44.2205 87.2894 45.9862 85.8819 47.2913L84.6792 48.3917L85.4469 49.8248C86.0099 50.8484 86.2914 51.9232 86.2914 52.998C86.2914 54.3031 85.9075 55.5571 85.2166 56.6319H67.124V23.4409ZM44.8091 36.8248L45.9095 36.0571L45.6536 34.7264C45.5512 34.2657 45.5256 33.8307 45.5256 33.4468C45.5256 29.7106 48.6221 26.6398 52.4095 26.6398H58.8839L59.5237 25.8209C60.3937 24.6693 61.5965 23.876 62.9016 23.4665V56.6575H44.8091C44.1181 55.5315 43.7343 54.3031 43.7343 52.998C43.7343 51.9232 44.0158 50.8484 44.5788 49.8248L45.3465 48.3917L44.1437 47.2913C42.7107 45.9862 41.9174 44.2205 41.9174 42.3268C41.9174 40.126 42.9666 38.1299 44.8091 36.8248ZM65 125.803C61.1359 125.803 57.9114 123.116 57.0414 119.508H72.9843C72.1142 123.116 68.8642 125.803 65 125.803ZM73.2402 115.311H56.7855V109.016H73.2402V115.311ZM82.3248 90.2579C76.6437 94.5059 73.7264 99.189 73.2658 104.844H67.0985V81.7874H75.3386V77.5905H67.0985H62.9016H54.5079V81.7874H62.9016V104.844H56.7343C56.2737 99.1634 53.4075 94.5059 47.7776 90.3346C40.2284 84.7303 35.9036 75.8248 36.2107 66.4587C36.2618 64.6161 36.5433 62.7224 37.004 60.8287H42.8642H87.2382H93.0984C93.6103 63.0039 93.8918 65.2047 93.8918 67.3799C93.815 76.439 89.6437 84.7815 82.3248 90.2579Z" fill="white"/>
<path d="M67.0985 0H62.9016V8.3937H67.0985V0Z" fill="white"/>
<path d="M32.6343 6.59813L29.6661 9.5659L35.6017 15.5023L38.5699 12.5345L32.6343 6.59813Z" fill="white"/>
<path d="M25.1555 39.8445H16.7618V44.0413H25.1555V39.8445Z" fill="white"/>
<path d="M113.238 39.8445H104.844V44.0413H113.238V39.8445Z" fill="white"/>
<path d="M97.3599 6.6003L91.4247 12.5355L94.3923 15.5031L100.327 9.5679L97.3599 6.6003Z" fill="white"/>
</svg>
